<svg xmlns="http://www.w3.org/2000/svg" width="149.412" height="23.288" style="opacity: 0.5;" viewBox="0 0 149.412 23.288">
  <path d="M33.695.026l8.432 11.567-8.451 11.679h-5.273l8.396-11.679-5.264-7.301 2.16-4.266zM13.67.037l-8.342 11.57 5.291 7.36-2.17 4.32L0 11.607S7.402 1.537 8.394.185l.109-.148h5.167z"
    fill-rule="evenodd" clip-rule="evenodd" fill="#fff"></path>
  <path d="M21.906 23.283l-5.197-.002L28.42.026h5.275L21.906 23.283zM13.664 23.265l-5.223.008L20.188 0h5.275L13.664 23.265z"
    fill-rule="evenodd" clip-rule="evenodd" fill="#f15726"></path>
  <g fill="#fff">
    <path d="M60.941 3.196c4.413 0 6.417 2.696 6.417 2.696L64.687 8.23s-1.217-1.67-3.793-1.67c-2.957 0-5.129 2.267-5.129 5.225 0 2.981 2.171 5.246 5.129 5.246 2.719 0 4.031-1.931 4.031-1.931l2.576 2.29s-2.075 2.981-6.679 2.981c-4.986 0-8.707-3.698-8.707-8.517 0-4.816 3.841-8.658 8.826-8.658zM86.219 11.736c0 4.819-3.841 8.635-8.826 8.635-4.986 0-8.707-3.698-8.707-8.517 0-4.817 3.841-8.659 8.826-8.659 4.985.001 8.707 3.722 8.707 8.541zm-3.626.049c0-2.958-2.194-5.225-5.129-5.225-2.957 0-5.129 2.267-5.129 5.225 0 2.981 2.171 5.246 5.129 5.246 2.935 0 5.129-2.265 5.129-5.246zM94.964 3.435c5.367 0 9.183 3.554 9.183 8.301s-3.936 8.397-9.303 8.397H89V3.435h5.964zM92.65 16.984h2.385c3.197 0 5.487-2.218 5.487-5.2 0-2.983-2.29-5.176-5.487-5.176H92.65v10.376zM107.14 20.133V3.435h12.285v3.174h-8.635v3.457h7.443v2.958h-7.443v3.96h8.873v3.148H107.14zM129.821 6.608v13.524h-3.626V6.608h-4.866V3.435h13.358v3.174h-4.866zM136.889 20.133V3.435h12.285v3.174h-8.635v3.457h7.443v2.958h-7.443v3.96h8.873v3.148h-12.523z"></path>
  </g>
</svg>
